<?xml version="1.0" standalone="no"?>
<!DOCTYPE svg PUBLIC "-//W3C//DTD SVG 20010904//EN"
 "http://www.w3.org/TR/2001/REC-SVG-20010904/DTD/svg10.dtd">
<svg version="1.0" xmlns="http://www.w3.org/2000/svg"
 width="512.000000pt" height="512.000000pt" viewBox="0 0 512.000000 512.000000"
 preserveAspectRatio="xMidYMid meet">

<g transform="translate(0.000000,512.000000) scale(0.100000,-0.100000)"
fill="#000000" stroke="none">
<path d="M2888 4836 c-111 -32 -222 -114 -273 -201 -66 -111 -83 -254 -47
-372 16 -50 229 -437 283 -515 18 -25 19 -53 19 -482 l0 -457 -127 3 -128 3 4
230 3 230 40 45 c56 64 115 190 128 277 21 133 -21 255 -117 343 -74 68 -145
94 -253 94 -75 1 -93 -3 -150 -30 -253 -121 -293 -439 -85 -683 42 -50 45 -56
41 -100 -2 -25 -5 -128 -5 -228 l-1 -183 -210 0 -210 0 -2 808 -3 809 -29 37
c-43 57 -74 66 -234 66 -128 0 -142 -2 -172 -22 -18 -13 -43 -36 -54 -51 -21
-28 -21 -35 -26 -900 -5 -814 -6 -872 -22 -875 -16 -3 -18 36 -20 600 l-3 603
-23 37 c-33 53 -91 78 -183 78 -95 0 -144 -25 -176 -90 l-23 -44 0 -740 0
-739 -53 -61 c-140 -160 -170 -223 -127 -266 41 -41 79 -25 132 54 61 89 216
245 314 315 164 116 380 202 581 231 54 8 336 10 933 8 955 -4 880 1 1105 -78
403 -142 726 -505 823 -925 23 -99 192 -1109 192 -1146 0 -13 -9 -38 -20 -56
-24 -39 -67 -53 -171 -53 -61 0 -79 -4 -92 -18 -23 -25 -21 -64 2 -93 18 -22
26 -24 118 -24 54 1 115 7 137 14 80 27 150 116 162 203 9 64 -176 1161 -217
1293 -63 201 -161 375 -303 538 l-76 86 0 705 0 704 -39 109 c-22 59 -42 116
-46 126 -9 22 -56 47 -90 47 -39 0 -81 -26 -93 -57 -6 -15 -27 -72 -47 -127
l-35 -98 0 -579 c0 -319 -3 -579 -7 -579 -4 0 -43 15 -88 34 -44 19 -118 46
-165 59 l-85 25 1 461 1 460 25 38 c64 94 273 463 291 513 13 35 20 83 21 133
1 71 -1 81 -23 98 -30 25 -66 24 -91 -1 -15 -15 -20 -33 -20 -79 0 -32 -7 -77
-15 -100 -13 -38 -223 -409 -267 -474 l-20 -27 -251 2 -252 3 -76 130 c-166
285 -199 350 -210 412 -26 150 77 314 222 353 26 7 150 10 342 8 l302 -3 68
-38 c50 -28 75 -37 93 -33 28 7 54 57 46 88 -7 28 -64 67 -140 96 -66 26 -70
26 -377 29 -234 1 -322 -1 -357 -11z m-1316 -445 c4 0 9 -134 10 -296 l3 -295
-82 0 -83 0 0 294 c0 334 -9 304 90 300 30 -1 58 -2 62 -3z m974 -527 c30 -18
60 -48 79 -78 26 -44 30 -58 30 -125 0 -67 -4 -85 -37 -151 -20 -41 -47 -88
-61 -104 l-24 -30 -109 3 c-130 3 -136 7 -192 120 -67 136 -55 261 33 339 55
49 94 62 171 59 49 -2 72 -9 110 -33z m-1486 -289 c0 -157 0 -288 0 -292 0 -5
-20 -9 -45 -11 l-45 -3 0 289 c0 159 3 292 7 295 3 4 24 7 45 7 l38 0 0 -285z
m522 -350 l3 -436 -25 -5 c-14 -3 -48 -12 -77 -20 -28 -8 -54 -14 -57 -14 -3
0 -6 205 -6 455 l0 455 80 0 80 0 2 -435z m1707 15 c-3 -397 -4 -420 -21 -421
-10 0 -65 -1 -123 -1 -58 0 -112 1 -120 1 -13 1 -15 55 -15 421 l0 420 141 0
140 0 -2 -420z m-839 -213 c0 -112 -2 -206 -4 -208 -3 -3 -23 -3 -45 -1 l-41
4 0 204 0 204 45 0 45 0 0 -203z m-1388 -173 l3 -276 -47 -34 -48 -34 0 310 0
310 45 0 44 0 3 -276z"/>
<path d="M513 1873 c-13 -10 -32 -53 -48 -103 -36 -120 -219 -1222 -211 -1278
12 -87 82 -175 162 -203 33 -12 353 -14 1925 -14 1842 0 1887 0 1908 19 26 24
28 77 3 99 -17 16 -163 17 -1888 18 -1421 0 -1877 3 -1904 12 -21 7 -42 25
-54 46 -18 32 -19 40 -7 120 39 276 176 1065 196 1137 14 46 25 92 25 102 0
49 -69 78 -107 45z"/>
</g>
</svg>
