<?xml version="1.0" encoding="utf-8"?>
<!-- Uploaded to: SVG Repo, www.svgrepo.com, Generator: SVG Repo Mixer Tools -->
<svg width="800px" height="800px" viewBox="0 0 1024 1024" class="icon"  version="1.1" xmlns="http://www.w3.org/2000/svg"><path d="M916.400356 643.436089c-36.920889-48.366933-105.380978-61.701689-157.9008-30.742756a121.025422 121.025422 0 0 0-33.541689 29.195378L406.914844 191.7952v0.022756a253.838222 253.838222 0 0 0 39.776712 205.198222l273.260088 386.707911c38.661689 54.727111 115.006578 69.279289 169.961245 30.685867 55.660089-39.082667 68.084622-116.474311 26.487467-170.973867z m-56.206223 129.547378c-31.5392 22.016-75.0592 14.449778-97.211733-16.896s-14.529422-74.615467 16.9984-96.620089 75.0592-14.461156 97.200356 16.884622a69.108622 69.108622 0 0 1-16.987023 96.631467z" fill="#E6E6E6" /><path d="M916.423111 643.3792c-36.886756-48.378311-105.358222-61.724444-157.866667-30.742756a120.718222 120.718222 0 0 0-33.553066 29.195378l-41.016889-58.0608-53.020445 73.887289 89.042489 126.008889c38.661689 54.727111 114.9952 69.279289 169.938489 30.685867 55.671467-39.105422 68.084622-116.485689 26.476089-170.973867z m-56.194844 129.536c-31.5392 22.027378-75.070578 14.461156-97.223111-16.884622a69.097244 69.097244 0 0 1 16.987022-96.620089c31.5392-22.027378 75.070578-14.461156 97.223111 16.884622a69.063111 69.063111 0 0 1-16.987022 96.620089zM576.159289 580.243911l-15.598933 88.735289a121.742222 121.742222 0 0 0-33.450667-10.990933c-65.809067-11.434667-128.500622 32.347022-140.014933 97.757866-11.514311 65.4336 32.529067 127.738311 98.338133 139.1616 65.8432 11.446044 128.500622-32.312889 140.014933-97.757866l20.718934-117.828267-70.007467-99.077689z m-81.908622 264.533333c-37.967644-6.599111-63.351467-42.530133-56.718223-80.270222 6.633244-37.728711 42.791822-62.976 80.759467-56.376889 37.956267 6.599111 63.351467 42.530133 56.706845 80.270223-6.633244 37.728711-42.791822 62.976-80.748089 56.376888z" fill="#FC583D" /><path d="M597.128533 460.993422l58.709334-333.801244a253.940622 253.940622 0 0 1 51.803022 202.5472l-40.504889 230.331733" fill="#CCCCCC" /><path d="M371.746133 597.822578a26.248533 26.248533 0 0 0-25.873066-21.515378h-73.170489c-26.532978 0-49.299911-15.246222-54.158222-36.283733a844.071822 844.071822 0 0 1 0-382.020267c4.858311-21.026133 27.636622-36.272356 54.158222-36.272356h73.170489a26.237156 26.237156 0 0 0 25.873066-21.515377l0.1024-0.546134c2.901333-16.031289-9.500444-30.754133-25.873066-30.754133H208.850489A59.392 59.392 0 0 0 151.552 112.64c-44.691911 163.669333-5.8368 624.594489 7.031467 761.173333a42.734933 42.734933 0 0 0 42.643911 38.6048 42.723556 42.723556 0 0 0 42.712178-39.492266l15.223466-208.065423a38.684444 38.684444 0 0 1 38.673067-35.748977h48.150755c16.361244 0 28.751644-14.722844 25.850312-30.742756l-0.091023-0.546133z" fill="#49DB95" /><path d="M881.060978 679.560533a14.290489 14.290489 0 0 0-8.749511 18.272711 55.011556 55.011556 0 0 1-20.400356 63.431112c-24.9856 17.442133-59.5968 11.434667-77.152711-13.403023-8.4992-12.049067-11.776-26.646756-9.238756-41.130666s10.615467-27.113244 22.721423-35.578311a55.591822 55.591822 0 0 1 61.326222-1.570134 14.449778 14.449778 0 0 0 19.842844-4.5056 14.256356 14.256356 0 0 0-4.539733-19.717689 84.434489 84.434489 0 0 0-93.161244 2.389334c-37.9904 26.5216-47.183644 78.813867-20.514134 116.553955a84.229689 84.229689 0 0 0 68.994845 35.544178 84.059022 84.059022 0 0 0 48.264533-15.166578c30.8224-21.526756 43.554133-61.166933 30.981689-96.426666a14.415644 14.415644 0 0 0-18.375111-8.692623z" fill="" /><path d="M927.857778 634.788978a135.111111 135.111111 0 0 0-81.783467-50.505956 135.543467 135.543467 0 0 0-119.660089 34.770489L612.329244 457.6256l51.6096-293.398756a239.877689 239.877689 0 0 1 29.536712 163.054934l-29.343289 166.8096a14.313244 14.313244 0 0 0 14.199466 16.770844c6.872178 0 12.936533-4.892444 14.153956-11.844266l29.343289-166.8096a268.435911 268.435911 0 0 0-54.715734-213.902223 14.449778 14.449778 0 0 0-25.463466 6.428445l-52.724622 299.793066-80.440889-113.834666a14.449778 14.449778 0 0 0-20.047645-3.4816 14.2336 14.2336 0 0 0-3.504355 19.922489l181.361777 256.659911-35.316622 49.197511-172.521244-244.189867a239.900444 239.900444 0 0 1-43.019378-160.039822l41.392356 58.5728a14.449778 14.449778 0 0 0 20.047644 3.4816 14.256356 14.256356 0 0 0 3.504356-19.922489l-61.701689-87.313067a14.449778 14.449778 0 0 0-25.793423 4.960712 268.310756 268.310756 0 0 0 41.995378 216.701155l126.0544 178.3808-11.491555 65.297067a135.702756 135.702756 0 0 0-19.888356-5.0176 135.145244 135.145244 0 0 0-101.125689 22.448355 133.586489 133.586489 0 0 0-55.546311 86.948978 133.051733 133.051733 0 0 0 22.573511 100.511289 134.564978 134.564978 0 0 0 87.460978 55.216356c7.8848 1.365333 15.7696 2.048 23.608889 2.048 27.591111 0 54.4768-8.385422 77.528178-24.4736a133.575111 133.575111 0 0 0 55.534933-86.948978l14.734222-83.808711 53.816889 76.140089a137.409422 137.409422 0 0 0 89.531733 56.445155c7.862044 1.353956 15.724089 2.036622 23.517867 2.036622a133.347556 133.347556 0 0 0 76.982045-24.337066 133.302044 133.302044 0 0 0 55.660088-89.361067c5.700267-36.386133-3.549867-72.6016-25.975466-101.979022zM611.271111 794.703644a105.301333 105.301333 0 0 1-43.736178 68.460089 106.416356 106.416356 0 0 1-79.633066 17.669689c-28.046222-4.881067-52.497067-20.309333-68.869689-43.463111s-22.675911-51.268267-17.772089-79.1552a105.221689 105.221689 0 0 1 43.736178-68.448711 106.416356 106.416356 0 0 1 79.621689-17.669689 106.791822 106.791822 0 0 1 29.468444 9.671111 14.427022 14.427022 0 0 0 20.650667-10.308266l9.6256-54.715734 46.614755 65.968356-19.706311 111.991466z m314.151822-62.327466a105.016889 105.016889 0 0 1-43.8272 70.360178c-22.926222 16.099556-50.972444 22.311822-78.973155 17.487644a108.862578 108.862578 0 0 1-70.894934-44.714667l-73.739377-104.379733-0.068267-0.068267-9.363911-13.266489 35.316622-49.197511 29.320533 41.506134a14.449778 14.449778 0 0 0 23.096889 0.625777 106.666667 106.666667 0 0 1 104.254578-38.377244 106.302578 106.302578 0 0 1 64.398222 39.719822 104.789333 104.789333 0 0 1 20.48 80.304356z" fill="" /><path d="M520.760889 694.044444a83.945244 83.945244 0 0 0-62.862222 13.949156 83.103289 83.103289 0 0 0-34.542934 54.055822c-7.998578 45.442844 22.710044 88.8832 68.414578 96.824889a83.888356 83.888356 0 0 0 62.8736-13.937778 83.069156 83.069156 0 0 0 34.531556-54.0672c7.998578-45.442844-22.698667-88.8832-68.414578-96.824889z m40.061155 91.886934c-5.256533 29.912178-33.9968 50.005333-64.1024 44.760178-30.082844-5.2224-50.2784-33.814756-45.021866-63.715556 5.256533-29.912178 34.008178-49.982578 64.1024-44.760178 30.094222 5.245156 50.289778 33.814756 45.021866 63.715556zM608.176356 573.257956c6.997333 10.592711 23.938844 6.872178 26.112-5.495467a14.336 14.336 0 0 0-7.3728-15.041422 14.563556 14.563556 0 0 0-16.702578 2.241422 14.347378 14.347378 0 0 0-2.036622 18.295467zM377.184711 628.929422a40.163556 40.163556 0 0 0 8.829156-33.0752l-0.1024-0.568889a40.595911 40.595911 0 0 0-40.0384-33.291377h-73.170489c-13.289244 0-25.4976-4.994844-33.006934-12.6976h94.025956c7.941689 0 14.392889-6.405689 14.392889-14.301867 0-7.907556-6.439822-14.313244-14.392889-14.313245h-104.698311a880.0256 880.0256 0 0 1-4.801422-24.530488h101.341866c7.941689 0 14.392889-6.405689 14.392889-14.301867s-6.439822-14.301867-14.392889-14.301867h-106.006755a859.454578 859.454578 0 0 1-3.197156-24.507733h105.949867c7.941689 0 14.392889-6.405689 14.392889-14.301867s-6.439822-14.301867-14.392889-14.301866h-108.714667a847.4624 847.4624 0 0 1-1.592889-24.530489h110.296178c7.941689 0 14.392889-6.405689 14.392889-14.301867s-6.439822-14.301867-14.392889-14.301867H211.057778a801.371022 801.371022 0 0 1 0-24.530489h112.321422c7.953067 0 14.392889-6.405689 14.392889-14.313244a14.336 14.336 0 0 0-14.392889-14.301867h-111.377067c0.4096-8.169244 0.944356-16.349867 1.592889-24.507733h111.968711a14.336 14.336 0 0 0 14.392889-14.301867 14.336 14.336 0 0 0-14.392889-14.301866h-109.203911a817.038222 817.038222 0 0 1 3.197156-24.530489h109.408711a14.336 14.336 0 0 0 14.392889-14.301867c0-7.907556-6.439822-14.313244-14.392889-14.313244h-104.732445c1.479111-8.180622 3.083378-16.361244 4.801423-24.530489h104.698311c7.953067 0 14.392889-6.405689 14.392889-14.301867s-6.439822-14.301867-14.392889-14.301867h-94.025956c7.509333-7.702756 19.717689-12.708978 33.006934-12.708977H345.884444a40.573156 40.573156 0 0 0 40.0384-33.302756l0.091023-0.523378a40.163556 40.163556 0 0 0-8.817778-33.097955A40.686933 40.686933 0 0 0 345.975467 54.613333H208.850489A73.921422 73.921422 0 0 0 137.671111 108.908089c-16.361244 59.904-31.755378 199.2704-12.219733 523.070578a14.370133 14.370133 0 0 0 15.223466 13.425777 14.336 14.336 0 0 0 13.505423-15.143822c-15.268978-253.223822-11.377778-430.910578 11.275377-513.854578a45.090133 45.090133 0 0 1 43.394845-33.1776h137.124978c4.835556 0 7.805156 2.651022 9.136355 4.243912 1.3312 1.581511 3.436089 4.937956 2.548622 9.853155l-0.068266 0.375467a11.855644 11.855644 0 0 1-11.707734 9.716622h-73.170488c-33.166222 0-61.8496 19.922489-68.187023 47.388444-29.7984 128.876089-29.7984 259.561244 0 388.437334 6.3488 27.4432 35.0208 47.377067 68.187023 47.377066H345.884444c5.757156 0 10.683733 4.084622 11.707734 9.716623l0.1024 0.568889c0.853333 4.733156-1.240178 8.0896-2.582756 9.671111a11.741867 11.741867 0 0 1-9.1136 4.243911h-48.150755c-27.727644 0-51.017956 21.526756-53.031823 49.015466l-15.223466 208.065423a28.478578 28.478578 0 0 1-28.3648 26.2144 28.239644 28.239644 0 0 1-28.307911-25.622756 7497.454933 7497.454933 0 0 1-15.405511-190.316089 14.370133 14.370133 0 0 0-15.325867-13.312 14.336 14.336 0 0 0-13.391645 15.246222 7500.333511 7500.333511 0 0 0 15.4624 191.044267c2.7648 29.400178 27.261156 51.575467 56.968534 51.575467 29.843911 0 54.897778-23.176533 57.070933-52.758756l15.223467-208.065422a24.428089 24.428089 0 0 1 24.314311-22.482489h48.150755a40.641422 40.641422 0 0 0 31.197867-14.495289z" fill="" /></svg>